<?xml version="1.0" encoding="utf-8"?>
<!-- Generator: Adobe Illustrator 16.0.0, SVG Export Plug-In . SVG Version: 6.00 Build 0)  -->
<!DOCTYPE svg PUBLIC "-//W3C//DTD SVG 1.1//EN" "http://www.w3.org/Graphics/SVG/1.1/DTD/svg11.dtd">
<svg version="1.1" xmlns="http://www.w3.org/2000/svg" xmlns:xlink="http://www.w3.org/1999/xlink" x="0px" y="0px" width="953px"
	 height="953px" viewBox="0 0 953 953" enable-background="new 0 0 953 953" xml:space="preserve">
<g id="Layer_1" display="none">
</g>
<g id="Layer_2" display="none">
	<g display="inline">
		<ellipse fill="#F6F6F6" cx="362" cy="592.833" rx="341.667" ry="344.167"/>
		<rect x="242.333" y="201.667" fill="#F6F6F6" width="213.333" height="110"/>
		<g>
			<path fill="#F6F6F6" d="M399.996,238.166c-50,2-75.5-25-75.5-59.5c0-21,6.5-37,22.5-70.5c12-25.5,21-44,21-62.5
				c0-18-14.5-26.5-42-27v-30c56-2.5,75.5,26.5,75.5,57.5c0,20-6,38-22,72.5c-11.5,23.5-22,42-22,60s12.5,29,42.5,30V238.166z"/>
		</g>
	</g>
</g>
<g id="Layer_3">
	<g>
		
			<ellipse transform="matrix(0.9175 0.3977 -0.3977 0.9175 274.479 -142.2855)" fill="#F6F6F6" cx="480.271" cy="590.59" rx="341.667" ry="344.166"/>
		
			<rect x="495.364" y="221.979" transform="matrix(0.9175 0.3977 -0.3977 0.9175 159.8055 -216.5744)" fill="#F6F6F6" width="213.334" height="110"/>
		<g>
			<path fill="#F6F6F6" d="M656.178,280.285c-46.671-18.05-59.331-52.964-45.61-84.618c8.351-19.268,20.678-31.363,48.681-55.737
				c21.151-18.625,36.767-32.02,44.123-48.994c7.158-16.516-2.766-30.08-27.799-41.476l11.932-27.526
				c52.375,19.977,58.734,54.34,46.406,82.783c-7.954,18.351-20.617,32.48-49.018,57.771
				c-19.897,16.988-36.889,29.787-44.047,46.303s-0.064,31.579,27.064,44.427L656.178,280.285z"/>
		</g>
	</g>
</g>
</svg>
