<?xml version="1.0" encoding="utf-8"?>
<!-- Generator: Adobe Illustrator 16.0.0, SVG Export Plug-In . SVG Version: 6.00 Build 0)  -->
<!DOCTYPE svg PUBLIC "-//W3C//DTD SVG 1.1//EN" "http://www.w3.org/Graphics/SVG/1.1/DTD/svg11.dtd">
<svg version="1.1" xmlns="http://www.w3.org/2000/svg" xmlns:xlink="http://www.w3.org/1999/xlink" x="0px" y="0px" width="194.5px"
	 height="564.5px" viewBox="0 0 194.5 564.5" enable-background="new 0 0 194.5 564.5" xml:space="preserve">
<g id="Layer_1">
	<g>
		<path fill="#F6F6F6" d="M20.103,93.595c0-47.952,32.4-81.648,77.76-81.648c45.36,0,76.464,33.696,76.464,81.648
			c0,46.656-29.808,81.648-77.76,81.648C51.207,175.243,20.103,140.251,20.103,93.595z"/>
	</g>
	<g>
		<path fill="#F6F6F6" d="M20.103,282.093c0-47.952,32.4-81.648,77.76-81.648c45.36,0,76.464,33.696,76.464,81.648
			c0,46.656-29.808,81.648-77.76,81.648C51.207,363.741,20.103,328.749,20.103,282.093z"/>
	</g>
	<g>
		<path fill="#F6F6F6" d="M20.103,470.591c0-47.952,32.4-81.648,77.76-81.648c45.36,0,76.464,33.696,76.464,81.648
			c0,46.656-29.808,81.648-77.76,81.648C51.207,552.239,20.103,517.247,20.103,470.591z"/>
	</g>
</g>
<g id="Layer_2" display="none">
	<rect x="6.603" y="-45" display="inline" fill="#58C5CA" width="13.5" height="869.955"/>
	<rect x="-337.763" y="237.243" display="inline" fill="#58C5CA" width="869.955" height="25.201"/>
	<rect x="-337.763" y="425.741" display="inline" fill="#58C5CA" width="869.955" height="25.201"/>
</g>
</svg>
