<?xml version="1.0" encoding="utf-8"?>
<!-- Generator: Adobe Illustrator 16.0.0, SVG Export Plug-In . SVG Version: 6.00 Build 0)  -->
<!DOCTYPE svg PUBLIC "-//W3C//DTD SVG 1.1//EN" "http://www.w3.org/Graphics/SVG/1.1/DTD/svg11.dtd">
<svg version="1.1" id="Layer_1" xmlns="http://www.w3.org/2000/svg" xmlns:xlink="http://www.w3.org/1999/xlink" x="0px" y="0px"
	 width="100px" height="100px" viewBox="0 0 100 100" enable-background="new 0 0 100 100" xml:space="preserve">
<g id="Layer_1_1_" display="none">
	<rect y="-6.75" display="inline" fill="none" width="100" height="118"/>
	<text transform="matrix(1 0 0 1 2.3193 99.2979)" display="inline" fill="#F6F6F6" font-family="'Corbel-Bold'" font-size="150">X</text>
</g>
<g id="Layer_2">
	<rect x="-9" y="-4" fill="none" width="118" height="111.667"/>
	<g enable-background="new    ">
		<path fill="#F6F6F6" d="M95.525,50.386c0,7.123-1.013,13.651-3.037,19.586c-2.025,5.936-4.981,11.045-8.868,15.326
			c-3.887,4.284-8.658,7.611-14.313,9.985C63.65,97.657,57.215,98.845,50,98.845c-7.216,0-13.65-1.188-19.307-3.562
			c-5.655-2.374-10.428-5.701-14.313-9.985c-3.888-4.281-6.843-9.391-8.868-15.326c-2.024-5.935-3.037-12.463-3.037-19.586
			c0-7.122,1.013-13.65,3.037-19.585c2.025-5.936,4.98-11.043,8.868-15.327c3.886-4.282,8.658-7.611,14.313-9.985
			C36.35,3.115,42.784,1.928,50,1.928c7.215,0,13.65,1.187,19.307,3.561c5.655,2.374,10.427,5.703,14.313,9.985
			c3.887,4.283,6.843,9.391,8.868,15.327C94.513,36.735,95.525,43.264,95.525,50.386z M77.859,50.386
			c0-5.678-0.697-10.647-2.094-14.907c-1.396-4.259-3.329-7.808-5.796-10.648c-2.468-2.839-5.4-4.958-8.798-6.354
			C57.773,17.08,54.05,16.382,50,16.382s-7.774,0.698-11.172,2.095c-3.398,1.396-6.331,3.515-8.798,6.354
			c-2.468,2.84-4.399,6.389-5.795,10.648c-1.396,4.26-2.095,9.229-2.095,14.907c0,5.681,0.698,10.648,2.095,14.908
			c1.396,4.259,3.328,7.797,5.795,10.613c2.467,2.816,5.399,4.935,8.798,6.354c3.397,1.421,7.122,2.13,11.172,2.13
			s7.773-0.709,11.172-2.13c3.397-1.419,6.33-3.537,8.798-6.354c2.467-2.816,4.399-6.354,5.796-10.613
			C77.162,61.034,77.859,56.066,77.859,50.386z"/>
	</g>
</g>
</svg>
