<?xml version="1.0" encoding="utf-8"?>
<!-- Generator: Adobe Illustrator 16.0.0, SVG Export Plug-In . SVG Version: 6.00 Build 0)  -->
<!DOCTYPE svg PUBLIC "-//W3C//DTD SVG 1.1//EN" "http://www.w3.org/Graphics/SVG/1.1/DTD/svg11.dtd">
<svg version="1.1" id="Layer_1" xmlns="http://www.w3.org/2000/svg" xmlns:xlink="http://www.w3.org/1999/xlink" x="0px" y="0px"
	 width="100px" height="100px" viewBox="0 0 100 100" enable-background="new 0 0 100 100" xml:space="preserve">
<g id="Layer_1_1_">
	<rect y="-6.75" fill="none" width="100" height="118"/>
	<g enable-background="new    ">
		<path fill="#F6F6F6" d="M39.893,21.441c4.735,6.885,8.057,11.817,9.961,14.795h0.366c2.637-4.102,5.933-9.009,9.888-14.722
			L74.097,1.3h20.654L60.62,49.493l35.596,49.805H75.854L60.547,77.398c-3.761-5.371-7.227-10.448-10.4-15.234h-0.293
			c-3.321,4.98-6.788,10.06-10.4,15.234L24.146,99.298H3.784L39.38,49.493L5.249,1.3h20.654L39.893,21.441z"/>
	</g>
</g>
<g id="Layer_2" display="none">
	<rect x="-9" y="-4" display="inline" fill="none" width="118" height="111.667"/>
	<text transform="matrix(1 0 0 1 -2.5078 97.0986)" display="inline" fill="#F6F6F6" font-family="'Corbel-Bold'" font-size="143">O</text>
</g>
</svg>
